:SAMPLES-PER-SECOND 30
:FULLY-SPECIFIED
:DEGREES
16
root  -75.5945 38.8396 -0.807919 -55.0908 85.8737 -54.4552
RightUpLeg  2.29773 8.14024 9.49711
RightLeg  17.25 1.93471 -3.52213
RightFoot  -14.7886 -0.0702723 -5.15046
RightToes  2.21189e-009 -3.18055e-015 8.94531e-016
Spine  -18.4627 3.14023 11.6309
Spine1  24.2751 4.24835 -7.08661
HEad  3.18627 -0.385436 3.33686
LeftShoulder1  0 0 -2.47967e-037
LeftArm  15.4848 43.7996 -81.5297
LeftForeArm  -38.732 -23.1336 10.9074
LeftHand  0.767855 5.7249 1.01844
RightShoulder  -2.48481e-017 0 -8.08114e-019
RightArm  14.7209 -27.468 86.5118
RightForeArm  -39.8918 36.074 -31.7946
RightHand  1.35864 -11.8292 -4.12055
LeftUpLeg  -28.5584 -3.45774 4.29577
LeftLeg  15.9725 -5.15826 0.851182
LeftFoot  4.57022 1.05422 -6.59602
LeftToes  -2.77942e-009 -2.0471e-010 1.20669e-012
17
root  -73.9825 38.6633 -0.922397 -40.4131 84.3468 -39.9029
RightUpLeg  5.12556 7.74333 9.19867
RightLeg  16.5477 3.57917 -2.73904
RightFoot  -15.7662 -0.11423 -5.10794
RightToes  2.21189e-009 -3.18055e-015 8.94531e-016
Spine  -19.0892 4.24112 13.0419
Spine1  25.4911 5.55118 -8.21906
HEad  2.64461 -0.327758 3.33949
LeftShoulder1  0 0 -2.47967e-037
LeftArm  12.7278 47.2839 -80.3716
LeftForeArm  -39.0231 -23.1028 11.0027
LeftHand  0.864649 6.32539 0.424057
RightShoulder  -2.48481e-017 0 -8.08114e-019
RightArm  15.7174 -24.2808 85.7197
RightForeArm  -40.0011 36.9615 -32.5681
RightHand  1.37329 -11.9545 -4.06049
LeftUpLeg  -28.2669 -2.19586 4.30207
LeftLeg  4.21598 -5.25435 0.872843
LeftFoot  3.24069 1.0438 -7.03715
LeftToes  -2.77942e-009 -2.0471e-010 1.20669e-012
18
root  -72.3219 38.3732 -1.04928 -32.4874 82.955 -32.2977
RightUpLeg  7.189 8.98018 8.96479
RightLeg  17.2734 3.35655 -2.47816
RightFoot  -17.0528 -0.126497 -3.9163
RightToes  2.21189e-009 -3.18055e-015 8.94531e-016
Spine  -19.9344 5.14096 13.5927
Spine1  26.7365 6.60772 -8.63986
HEad  2.67632 -0.45675 3.4746
LeftShoulder1  0 0 -2.47967e-037
LeftArm  13.4354 50.6105 -79.9193
LeftForeArm  -45.4327 -23.8881 12.528
LeftHand  1.05409 7.67847 2.59952
RightShoulder  -2.48481e-017 0 -8.08114e-019
RightArm  16.6186 -21.9951 85.0909
RightForeArm  -40.0224 37.2654 -32.8413
RightHand  1.37683 -12.041 -3.90466
LeftUpLeg  -28.6151 -0.507889 4.04564
LeftLeg  -3.56409 -4.41483 0.542278
LeftFoot  1.6559 0.975987 -7.37569
LeftToes  -2.77942e-009 -2.0471e-010 1.20669e-012
19
root  -70.5749 37.965 -1.18198 -28.4045 82.4743 -28.4566
RightUpLeg  8.98704 9.66561 8.41317
RightLeg  19.1103 2.9131 -2.45643
RightFoot  -18.5459 -0.0825298 -1.8789
RightToes  2.21189e-009 -3.18055e-015 8.94531e-016
Spine  -20.2708 5.405 13.1406
Spine1  27.2258 7.04464 -8.76515
HEad  2.87448 -0.350497 4.18093
LeftShoulder1  0 0 -2.47967e-037
LeftArm  13.704 53.1465 -78.9086
LeftForeArm  -47.4247 -24.2656 13.3929
LeftHand  1.01659 7.41937 2.82023
RightShoulder  -2.48481e-017 0 -8.08114e-019
RightArm  16.7435 -20.5278 85.2066
RightForeArm  -39.5029 36.7997 -32.4592
RightHand  1.32275 -11.8223 -3.36662
LeftUpLeg  -29.8547 -0.509199 4.12951
LeftLeg  -4.66007 -1.59852 -0.123906
LeftFoot  -0.281735 0.89104 -7.68044
LeftToes  -2.77942e-009 -2.0471e-010 1.20669e-012
20
root  -68.7265 37.4752 -1.32973 -23.348 83.4274 -23.8129
RightUpLeg  10.4074 8.13836 6.62926
RightLeg  21.5723 3.88853 -2.33705
RightFoot  -19.6795 0.0406083 0.567296
RightToes  2.21189e-009 -3.18055e-015 8.94531e-016
Spine  -20.8253 5.06044 10.7601
Spine1  27.5827 6.71926 -7.8054
HEad  3.11988 -0.48273 4.48715
LeftShoulder1  0 0 -2.47967e-037
LeftArm  14.3906 54.3782 -77.6431
LeftForeArm  -46.959 -24.4793 14.1116
LeftHand  0.977934 7.18865 2.53753
RightShoulder  -2.48481e-017 0 -8.08114e-019
RightArm  15.4712 -20.6303 85.4406
RightForeArm  -38.6471 36.5836 -32.3308
RightHand  1.28708 -11.6359 -3.13929
LeftUpLeg  -32.223 -1.83128 2.83988
LeftLeg  0.261711 0.141001 0.930937
LeftFoot  -0.410638 0.625502 -5.49764
LeftToes  -2.77942e-009 -2.0471e-010 1.20669e-012
21
root  -66.8631 36.8899 -1.5113 -10.4913 84.5185 -11.4969
RightUpLeg  10.7929 5.077 3.21442
RightLeg  25.8341 6.43278 -1.59364
RightFoot  -20.0881 0.218666 3.34911
RightToes  2.21189e-009 -3.18055e-015 8.94531e-016
Spine  -20.7849 4.81559 8.00726
Spine1  27.355 6.6644 -7.23021
HEad  3.45101 -1.40706 4.6067
LeftShoulder1  0 0 -2.47967e-037
LeftArm  15.9125 54.1205 -76.3083
LeftForeArm  -47.6195 -24.5974 14.3211
LeftHand  0.968163 7.16024 4.0702
RightShoulder  -2.48481e-017 0 -8.08114e-019
RightArm  12.7535 -22.2821 85.7413
RightForeArm  -38.7467 37.063 -32.7505
RightHand  1.35624 -11.9776 -3.65178
LeftUpLeg  -34.9895 -4.85415 1.90769
LeftLeg  7.22761 2.38196 2.51339
LeftFoot  5.62977 0.500127 -2.97098
LeftToes  -2.77942e-009 -2.0471e-010 1.20669e-012
22
root  -65.1503 36.2207 -1.69997 4.43604 84.9069 2.90665
RightUpLeg  9.20911 1.52694 -0.773692
RightLeg  33.4042 9.55144 -0.121692
RightFoot  -17.6144 0.233409 6.30636
RightToes  2.21189e-009 -3.18055e-015 8.94531e-016
Spine  -18.8286 4.82185 6.05248
Spine1  25.9771 6.88372 -7.48264
HEad  3.03972 -2.28018 4.95242
LeftShoulder1  0 0 -2.47967e-037
LeftArm  17.6144 52.1842 -75.2676
LeftForeArm  -47.2233 -24.6521 14.4897
LeftHand  0.896925 6.71562 3.25262
RightShoulder  -2.48481e-017 0 -8.08114e-019
RightArm  9.99675 -24.2498 86.2117
RightForeArm  -38.8575 37.7795 -33.3956
RightHand  1.38413 -12.1208 -3.83397
LeftUpLeg  -38.3197 -6.04897 1.10384
LeftLeg  15.5932 2.68015 3.62854
LeftFoot  11.8483 0.476516 -1.94762
LeftToes  -2.77942e-009 -2.0471e-010 1.20669e-012
23
root  -63.6963 35.6224 -1.86886 21.6024 85.7401 20.2737
RightUpLeg  6.42198 -1.10956 -3.68626
RightLeg  43.2708 10.8105 0.693289
RightFoot  -10.4534 -0.20864 8.20946
RightToes  2.21189e-009 -3.18055e-015 8.94531e-016
Spine  -15.0607 4.21624 4.18936
Spine1  24.5531 6.41966 -7.83067
HEad  1.74671 -3.27575 5.16113
LeftShoulder1  0 0 -2.47967e-037
LeftArm  17.0666 48.3187 -75.2537
LeftForeArm  -45.4295 -24.4111 14.0948
LeftHand  0.910138 6.72792 1.74838
RightShoulder  -2.48481e-017 0 -8.08114e-019
RightArm  8.11705 -25.3247 86.8655
RightForeArm  -38.1374 37.7418 -33.4156
RightHand  1.31922 -11.7575 -3.47945
LeftUpLeg  -40.8147 -4.22549 -1.59874
LeftLeg  24.1227 -0.916495 3.94897
LeftFoot  12.1056 -0.0664516 0.50064
LeftToes  -2.77942e-009 -2.0471e-010 1.20669e-012
24
root  -62.5043 35.123 -2.01056 49.168 86.1695 48.295
RightUpLeg  2.25419 -2.24149 -5.75543
RightLeg  53.7552 10.5191 0.233283
RightFoot  0.316213 -0.647455 6.15677
RightToes  2.21189e-009 -3.18055e-015 8.94531e-016
Spine  -11.0075 3.21622 1.31944
Spine1  23.6601 5.38203 -7.79864
HEad  0.863717 -3.8857 4.82607
LeftShoulder1  0 0 -2.47967e-037
LeftArm  16.6484 43.5025 -76.4945
LeftForeArm  -45.6954 -24.36 13.9225
LeftHand  0.822532 6.29183 3.02371
RightShoulder  -2.48481e-017 0 -8.08114e-019
RightArm  7.95925 -25.3098 87.4798
RightForeArm  -37.6208 36.5139 -32.3385
RightHand  1.3155 -11.6427 -3.72239
LeftUpLeg  -42.1297 -4.22113 -4.45605
LeftLeg  30.7611 -3.249 4.4835
LeftFoot  9.09582 -0.533593 2.82261
LeftToes  -2.77942e-009 -2.0471e-010 1.20669e-012
25
root  -61.4673 34.7664 -2.10536 73.942 85.6885 73.0021
RightUpLeg  -3.09262 -2.12788 -6.65668
RightLeg  62.7624 9.85082 -1.59988
RightFoot  8.3473 -0.935184 4.75083
RightToes  2.21189e-009 -3.18055e-015 8.94531e-016
Spine  -7.52186 2.5222 -1.62751
Spine1  22.4066 4.28611 -7.21326
HEad  1.62704 -4.1988 4.15009
LeftShoulder1  0 0 -2.47967e-037
LeftArm  17.3468 38.6661 -77.9662
LeftForeArm  -46.5905 -24.7626 15.0603
LeftHand  0.739365 5.7856 3.4184
RightShoulder  -2.48481e-017 0 -8.08114e-019
RightArm  8.91298 -25.3407 87.7319
RightForeArm  -37.3905 35.2854 -31.2948
RightHand  1.34069 -11.8093 -3.79482
LeftUpLeg  -43.371 -6.62287 -5.66632
LeftLeg  36.1467 -2.95059 6.08622
LeftFoot  4.83575 -0.355202 2.26337
LeftToes  -2.77942e-009 -2.0471e-010 1.20669e-012
